<?xml version="1.0" standalone="no"?>
<!DOCTYPE svg PUBLIC "-//W3C//DTD SVG 20010904//EN"
 "http://www.w3.org/TR/2001/REC-SVG-20010904/DTD/svg10.dtd">
<svg version="1.0" xmlns="http://www.w3.org/2000/svg"
 width="496.000000pt" height="496.000000pt" viewBox="0 0 496.000000 496.000000"
 preserveAspectRatio="xMidYMid meet">

<g transform="translate(0.000000,496.000000) scale(0.100000,-0.100000)"
fill="#000000" stroke="none">
<path d="M2485 4868 c-2 -7 -6 -26 -10 -43 -29 -139 -47 -205 -55 -205 -4 0
-18 24 -30 53 -12 28 -36 83 -53 120 l-31 68 -40 -3 c-45 -3 -34 20 -93 -216
-16 -66 -28 -49 -109 150 -18 45 -21 48 -56 48 -44 0 -51 -8 -34 -41 6 -13 20
-43 29 -66 9 -23 25 -61 36 -85 11 -24 33 -73 49 -109 l29 -66 44 6 c35 5 45
11 51 31 8 28 21 82 39 155 23 93 22 94 88 -60 43 -100 43 -100 91 -100 48 0
51 4 70 100 8 39 41 177 59 243 l9 32 -39 0 c-23 0 -41 -5 -44 -12z"/>
<path d="M3055 4818 c-2 -7 -16 -53 -30 -103 -15 -49 -30 -99 -34 -110 -20
-53 -41 -124 -41 -138 0 -20 61 -42 71 -25 5 8 16 4 38 -14 80 -68 194 -32
231 73 33 93 -34 179 -137 179 -53 0 -53 0 -47 28 4 15 13 43 20 63 12 35 12
36 -20 47 -41 15 -46 15 -51 0z m125 -203 c64 -33 28 -155 -44 -155 -71 0
-102 91 -50 144 31 30 53 32 94 11z"/>
<path d="M2700 4752 c-106 -53 -106 -194 0 -256 69 -41 195 -20 177 28 -5 12
-21 16 -70 16 -57 0 -66 3 -91 29 -38 39 -22 45 77 31 45 -7 93 -11 107 -9 23
4 25 8 23 47 -5 104 -123 165 -223 114z m136 -67 c30 -30 27 -51 -7 -47 -107
11 -119 15 -119 33 0 44 87 53 126 14z"/>
<path d="M1413 4526 c-20 -25 -31 -32 -39 -25 -9 7 -22 5 -44 -6 l-31 -16 42
-77 c24 -42 51 -93 60 -112 33 -64 33 -64 68 -46 17 9 31 19 31 22 0 3 -16 35
-35 73 -43 82 -44 111 -7 143 25 21 26 25 14 51 -17 35 -25 34 -59 -7z"/>
<path d="M3594 4534 c-10 -14 -20 -42 -23 -62 -6 -34 -9 -37 -51 -44 -109 -18
-117 -132 -14 -198 33 -21 60 -30 89 -30 44 0 65 -13 65 -42 0 -20 21 -23 49
-8 13 6 17 17 14 34 -4 18 3 32 27 53 29 26 31 32 21 51 -14 26 -28 28 -53 5
-24 -21 -36 -9 -40 42 -3 39 -2 40 32 43 48 5 80 37 80 80 0 27 -8 42 -36 68
-31 30 -42 34 -89 34 -48 0 -57 -3 -71 -26z m111 -36 c47 -21 22 -72 -32 -66
-33 4 -43 37 -18 62 20 19 18 19 50 4z m-93 -173 c22 -61 18 -74 -19 -67 -41
7 -83 40 -83 64 0 31 30 59 59 56 20 -2 29 -13 43 -53z"/>
<path d="M1758 4466 c-29 -15 -35 -42 -12 -67 24 -26 60 -24 79 5 29 44 -17
87 -67 62z"/>
<path d="M1119 4367 c-46 -25 -89 -84 -89 -125 0 -72 78 -152 149 -152 71 0
176 77 169 124 -5 35 -49 33 -70 -4 -25 -44 -98 -66 -126 -38 -13 13 -18 8
102 86 36 24 66 49 66 56 0 17 -39 53 -73 65 -43 17 -80 13 -128 -12z m102
-53 c8 -10 9 -18 2 -22 -48 -31 -83 -58 -83 -64 0 -16 -29 -7 -35 11 -18 58
78 121 116 75z"/>
<path d="M3995 4149 c-66 -61 -126 -117 -134 -124 -13 -13 -12 -17 4 -35 10
-11 25 -20 34 -20 9 0 49 30 89 66 60 55 72 62 72 44 0 -21 -22 -102 -41 -149
-7 -16 -6 -28 3 -38 12 -15 26 -15 123 7 92 20 105 22 105 17 0 -2 -35 -39
-77 -80 l-78 -76 27 -27 26 -27 89 84 c48 47 107 102 131 123 47 44 50 55 22
81 -21 19 -50 16 -184 -21 -58 -16 -106 -18 -106 -4 0 5 4 19 9 32 5 13 22 67
37 120 26 95 27 98 9 118 -10 11 -23 20 -29 20 -6 0 -65 -50 -131 -111z"/>
<path d="M826 4135 c-19 -19 -36 -44 -38 -57 -2 -14 -9 -22 -19 -20 -8 1 -26
-9 -39 -23 l-24 -26 115 -112 c63 -62 126 -122 140 -134 l25 -22 29 25 30 25
-48 45 c-49 47 -52 64 -13 64 13 0 37 14 54 31 58 60 55 133 -9 198 -39 40
-43 41 -104 41 -60 0 -67 -2 -99 -35z m146 -62 c34 -33 37 -77 6 -110 -32 -34
-79 -31 -117 8 -38 37 -39 68 -5 103 35 35 79 35 116 -1z"/>
<path d="M625 3885 c-47 -17 -87 -60 -105 -115 -11 -33 -11 -47 0 -80 16 -48
41 -73 98 -96 38 -15 48 -15 84 -3 52 17 101 66 118 120 36 110 -82 215 -195
174z m84 -80 c47 -24 56 -83 19 -122 -56 -59 -165 10 -137 87 19 50 64 63 118
35z"/>
<path d="M4325 3767 c-102 -40 -137 -143 -77 -227 57 -81 142 -100 217 -48 45
30 59 59 58 117 -2 105 -111 192 -198 158z m111 -95 c21 -26 28 -63 17 -81
-13 -20 -72 -61 -89 -61 -7 0 -26 12 -43 26 -51 42 -36 112 29 137 24 10 72
-2 86 -21z"/>
<path d="M304 3649 c-8 -17 -12 -35 -7 -39 4 -4 44 -27 88 -50 44 -23 94 -50
110 -60 17 -10 56 -31 88 -48 l58 -32 16 35 c9 19 15 36 12 38 -4 3 -55 31
-204 113 -38 20 -83 46 -100 56 -40 24 -42 23 -61 -13z"/>
<path d="M4655 3503 c-33 -14 -69 -29 -80 -33 -18 -7 -60 -25 -125 -52 -14 -6
-33 -14 -42 -19 -10 -5 -25 -9 -33 -9 -22 0 -20 -56 4 -72 11 -8 21 -32 25
-60 13 -89 82 -136 172 -119 59 11 101 45 115 91 16 53 4 107 -32 143 -17 16
-29 30 -27 32 12 9 73 35 83 35 26 0 35 25 23 58 -7 18 -15 32 -18 31 -3 0
-32 -12 -65 -26z m-64 -144 c26 -14 41 -55 34 -91 -12 -55 -104 -78 -142 -35
-29 32 -33 50 -16 84 22 47 79 66 124 42z"/>
<path d="M371 3446 c-19 -7 -49 -30 -68 -51 -29 -34 -33 -45 -33 -94 0 -48 5
-62 31 -93 95 -116 269 -41 271 117 1 55 -2 58 -36 46 -21 -9 -26 -17 -26 -47
0 -50 -33 -94 -71 -94 -29 0 -36 8 -20 26 4 5 17 32 27 59 10 28 24 61 31 75
20 38 16 46 -26 58 -21 7 -40 12 -42 11 -2 0 -19 -6 -38 -13z m44 -65 c6 -10
-30 -110 -45 -125 -15 -16 -40 14 -40 48 0 35 14 57 45 74 25 14 32 14 40 3z"/>
<path d="M207 3173 c-4 -3 -7 -21 -7 -39 0 -30 8 -39 80 -90 44 -32 77 -61 72
-66 -4 -4 -51 -13 -104 -20 -95 -12 -98 -13 -108 -41 -16 -46 -13 -50 28 -43
20 3 71 10 112 16 161 23 164 23 171 50 14 51 10 59 -68 115 -43 30 -99 71
-124 90 -25 19 -49 32 -52 28z"/>
<path d="M4826 3141 c-22 -24 -13 -59 17 -70 31 -12 57 5 57 37 0 51 -42 69
-74 33z"/>
<path d="M4670 3100 c-36 -10 -92 -26 -125 -35 -32 -9 -61 -18 -63 -20 -9 -9
9 -56 23 -62 9 -3 50 5 93 16 42 12 98 28 125 35 26 7 50 16 53 19 7 7 -24 67
-34 66 -4 -1 -36 -9 -72 -19z"/>
<path d="M4830 2964 c-108 -23 -152 -32 -225 -45 -38 -7 -73 -15 -78 -19 -4
-3 -4 -21 -1 -39 8 -37 2 -37 189 1 55 12 114 23 130 25 74 10 75 11 75 53 0
45 4 44 -90 24z"/>
<path d="M194 2806 c-17 -8 -43 -29 -58 -48 -21 -28 -26 -46 -26 -92 0 -65 22
-106 70 -131 42 -22 118 -19 158 5 61 37 90 146 57 210 -18 34 -27 37 -46 13
-9 -10 -13 -34 -11 -69 3 -47 1 -56 -24 -79 -42 -39 -48 -33 -39 48 5 39 9 90
9 112 1 37 -1 40 -29 42 -16 2 -44 -4 -61 -11z m41 -118 c-10 -95 -17 -105
-49 -72 -16 16 -22 80 -8 100 8 12 43 33 55 34 4 0 5 -28 2 -62z"/>
<path d="M4622 2770 c-69 -42 -89 -150 -42 -228 22 -36 32 -39 51 -16 10 12
10 22 1 48 -24 67 -6 136 36 136 10 0 20 -59 25 -155 2 -50 2 -50 39 -53 30
-3 42 3 77 36 39 37 41 42 41 96 0 68 -19 110 -63 136 -43 27 -121 26 -165 0z
m156 -73 c20 -16 15 -91 -8 -112 -12 -11 -24 -15 -29 -9 -10 11 -23 129 -15
137 7 6 33 -2 52 -16z"/>
<path d="M128 2456 c-95 -42 -121 -120 -101 -306 l6 -62 101 6 c56 3 141 8
190 12 l89 7 -6 91 c-4 50 -11 108 -17 129 -13 43 -60 102 -101 123 -33 17
-123 17 -161 0z m148 -85 c34 -21 64 -89 64 -147 0 -37 -5 -39 -156 -50 -90
-6 -91 -6 -97 17 -12 42 -7 97 10 133 29 62 117 85 179 47z"/>
<path d="M4566 2292 c-7 -12 -30 -164 -30 -207 -1 -54 36 -125 79 -154 39 -26
105 -37 160 -27 52 10 118 78 132 136 18 72 37 190 31 195 -5 5 -64 17 -228
45 -99 17 -139 20 -144 12z m199 -103 c39 -6 76 -13 83 -15 27 -8 6 -117 -32
-161 -21 -24 -31 -28 -84 -28 -66 0 -91 15 -119 69 -14 27 -14 44 3 129 6 31
-8 30 149 6z"/>
<path d="M390 1860 c-29 -44 -57 -80 -62 -80 -5 0 -40 15 -78 34 -39 18 -70
30 -70 26 0 -4 7 -24 15 -44 13 -30 28 -43 90 -73 41 -21 75 -40 75 -43 0 -4
-46 -22 -102 -41 -100 -34 -103 -36 -101 -64 1 -15 6 -32 10 -36 6 -6 361 103
382 117 5 4 -7 46 -17 62 -6 9 -16 10 -41 1 -35 -12 -81 0 -81 22 0 6 16 35
36 65 36 54 36 57 24 95 -7 21 -16 39 -20 39 -4 0 -31 -36 -60 -80z"/>
<path d="M4523 1865 c-17 -7 -46 -33 -62 -56 -26 -35 -31 -51 -31 -101 0 -43
4 -58 14 -58 33 0 46 13 46 45 0 48 14 79 45 99 47 31 51 7 15 -93 -18 -50
-29 -98 -26 -106 8 -21 100 -20 136 2 70 41 93 156 44 221 -44 57 -115 76
-181 47z m147 -143 c0 -44 -24 -72 -62 -72 -33 0 -33 -3 -10 57 11 26 22 56
26 67 6 18 7 18 26 1 13 -12 20 -31 20 -53z"/>
<path d="M510 1565 c0 -22 5 -35 13 -35 28 0 57 -40 57 -80 0 -31 -6 -43 -29
-59 -42 -30 -82 -27 -115 8 -24 25 -27 35 -22 64 5 29 3 35 -19 47 -35 19 -50
2 -50 -55 0 -61 45 -123 107 -149 41 -17 53 -18 88 -7 23 7 55 25 72 40 63 56
43 194 -35 241 -49 31 -67 26 -67 -15z"/>
<path d="M4316 1497 c-18 -35 -18 -36 0 -60 39 -49 106 -131 143 -173 l37 -43
18 30 c17 29 17 30 -9 64 -14 19 -44 56 -66 81 -22 26 -37 50 -32 54 4 5 31 4
58 0 28 -5 73 -9 100 -9 46 -1 52 2 68 29 24 39 42 35 -223 56 l-75 6 -19 -35z"/>
<path d="M645 1292 c-87 -63 -122 -111 -112 -153 9 -37 47 -88 89 -122 31 -25
40 -28 53 -17 23 19 18 38 -20 71 -38 34 -49 59 -40 89 10 31 32 24 59 -19 32
-50 62 -71 101 -71 41 0 72 23 80 59 9 43 -27 109 -70 127 -24 9 -32 19 -29
31 2 10 -4 28 -13 40 l-18 22 -80 -57z m121 -77 c31 -32 29 -69 -4 -73 -41 -6
-94 57 -71 84 17 21 47 17 75 -11z"/>
<path d="M4194 1281 c-43 -26 -84 -82 -91 -124 -6 -39 3 -49 36 -40 14 4 24
16 28 34 7 38 56 79 94 79 16 0 29 -3 29 -7 0 -5 -29 -46 -65 -92 -72 -93 -72
-103 -4 -121 58 -16 106 -3 149 40 73 73 64 160 -24 228 -37 28 -108 30 -152
3z m155 -115 c11 -19 10 -28 -3 -53 -8 -17 -23 -33 -31 -37 -20 -7 -75 -8 -75
-1 0 11 81 115 89 115 4 0 13 -11 20 -24z"/>
<path d="M881 1088 c-7 -18 -5 -26 10 -37 10 -7 19 -21 19 -30 0 -17 -89 -111
-105 -111 -5 0 -19 10 -32 22 -22 21 -24 21 -41 5 -14 -14 -14 -20 -4 -35 23
-32 24 -43 8 -61 -21 -23 -20 -44 2 -64 24 -22 31 -21 59 4 18 18 25 20 38 9
23 -19 48 5 40 40 -5 22 3 34 49 78 31 28 58 62 62 76 6 27 -15 75 -48 106
-28 26 -47 25 -57 -2z"/>
<path d="M3997 1062 l-27 -28 83 -79 c45 -44 110 -107 144 -140 l63 -59 25 24
c28 26 32 45 11 57 -15 8 -94 81 -206 190 l-66 63 -27 -28z"/>
<path d="M3872 932 c-34 -11 -90 -59 -108 -94 -26 -51 -14 -112 32 -159 36
-37 42 -39 97 -39 32 0 68 5 80 11 55 29 97 91 97 146 0 33 -38 99 -67 118
-27 18 -98 27 -131 17z m87 -88 c71 -59 13 -167 -73 -135 -25 10 -66 64 -66
88 0 6 12 25 26 42 32 39 71 41 113 5z"/>
<path d="M1007 899 c-9 -5 -24 -24 -33 -40 -20 -39 -10 -67 52 -155 52 -73 52
-96 -1 -102 -23 -3 -37 6 -80 52 -49 52 -53 54 -74 40 -11 -8 -21 -19 -21 -24
0 -17 65 -83 109 -112 65 -41 113 -38 158 7 31 31 35 40 30 71 -3 19 -26 63
-51 96 -49 66 -55 88 -31 108 30 25 120 -40 145 -106 9 -22 10 -22 40 -8 16 9
30 19 30 22 0 11 -52 85 -69 100 -55 45 -93 62 -138 62 -27 0 -56 -5 -66 -11z"/>
<path d="M3568 844 l-28 -15 30 -53 c17 -29 30 -56 30 -59 0 -4 -14 -7 -31 -7
-44 0 -94 -34 -114 -77 -41 -86 19 -194 117 -209 45 -8 119 25 138 61 9 18 19
23 34 20 12 -3 31 3 43 12 l22 18 -97 162 c-53 89 -101 162 -107 162 -5 0 -22
-6 -37 -15z m84 -211 c57 -54 27 -137 -49 -137 -72 0 -109 89 -58 139 32 33
72 32 107 -2z"/>
<path d="M1442 637 c-13 -23 -51 -94 -84 -157 -33 -63 -64 -119 -69 -125 -16
-17 -9 -32 21 -45 24 -10 33 -10 45 0 8 7 15 16 15 20 0 4 36 73 80 153 44 80
80 150 80 155 0 5 -12 15 -27 23 -16 7 -30 15 -33 16 -3 2 -15 -16 -28 -40z"/>
<path d="M1591 589 c-5 -13 -20 -49 -34 -79 -14 -30 -34 -77 -46 -105 -12 -27
-31 -67 -41 -88 -27 -52 -25 -71 7 -86 24 -11 29 -10 45 11 10 13 18 26 18 30
0 8 23 59 91 206 44 95 46 108 22 115 -10 2 -26 8 -35 12 -13 5 -20 1 -27 -16z"/>
<path d="M3191 545 c-54 -32 -73 -55 -59 -72 15 -18 36 -16 69 8 43 31 89 35
119 11 l25 -20 -25 -11 c-14 -5 -60 -23 -102 -38 -91 -33 -98 -50 -42 -104 33
-31 40 -34 99 -34 71 0 103 17 143 75 25 38 28 73 8 121 -25 60 -59 83 -129
86 -52 3 -69 0 -106 -22z m169 -140 c0 -54 -87 -87 -124 -47 -15 18 -14 20 21
34 21 9 49 20 63 26 37 16 40 14 40 -13z"/>
<path d="M1728 521 c-20 -53 -61 -187 -65 -218 -4 -24 -1 -33 8 -33 8 0 24 -3
36 -6 19 -5 23 2 44 68 26 86 51 118 91 118 32 0 68 -31 68 -57 -1 -10 -9 -43
-20 -73 -32 -91 -25 -120 29 -120 12 0 22 14 31 43 7 23 19 61 26 85 27 83 13
132 -46 164 -26 14 -47 18 -81 14 -39 -4 -48 -2 -52 13 -2 10 -17 20 -31 23
-23 5 -29 1 -38 -21z"/>
<path d="M3002 488 c-31 -8 -32 -10 -26 -46 4 -20 11 -45 15 -54 5 -9 9 -37 9
-61 0 -45 -15 -67 -53 -80 -13 -5 -17 -15 -15 -34 4 -37 28 -40 67 -8 25 22
32 24 37 12 4 -12 12 -13 36 -6 17 4 33 10 35 13 6 6 -56 259 -65 267 -4 3
-22 2 -40 -3z"/>
<path d="M2247 374 c-3 -31 -10 -61 -15 -66 -5 -5 -43 -4 -88 0 -43 5 -80 8
-82 7 -2 -1 -4 -15 -5 -31 -2 -29 -2 -29 72 -36 40 -3 77 -10 83 -16 5 -5 8
-29 6 -53 l-3 -44 -50 1 c-27 1 -74 5 -102 9 -45 7 -53 5 -53 -8 0 -8 -2 -22
-6 -30 -5 -15 7 -18 157 -36 41 -6 87 -13 102 -16 24 -6 27 -4 27 19 0 14 5
56 10 93 28 183 37 253 32 258 -3 3 -22 5 -42 5 l-37 0 -6 -56z"/>
<path d="M2622 418 c-7 -7 -12 -21 -12 -33 0 -29 19 -45 52 -45 36 0 56 36 39
69 -13 23 -59 29 -79 9z"/>
</g>
</svg>
