<?xml version="1.0" standalone="no"?>
<!DOCTYPE svg PUBLIC "-//W3C//DTD SVG 20010904//EN"
 "http://www.w3.org/TR/2001/REC-SVG-20010904/DTD/svg10.dtd">
<svg version="1.0" xmlns="http://www.w3.org/2000/svg"
 width="496.000000pt" height="496.000000pt" viewBox="0 0 496.000000 496.000000"
 preserveAspectRatio="xMidYMid meet">

<g transform="translate(0.000000,496.000000) scale(0.100000,-0.100000)"
fill="#000000" stroke="none">
<path d="M2591 4313 c-6 -31 -11 -71 -11 -89 0 -18 -4 -44 -10 -58 -5 -14 -12
-56 -16 -92 -7 -71 -1 -84 42 -84 25 0 34 23 34 90 0 25 7 63 14 85 l14 40 31
-70 c66 -151 68 -152 152 -51 35 42 66 76 69 76 9 0 -1 -122 -11 -142 -5 -9
-9 -30 -9 -47 0 -28 3 -31 33 -31 33 0 34 2 47 58 7 31 16 86 21 122 4 36 12
92 18 124 6 33 10 61 8 61 -1 1 -16 5 -34 8 -30 6 -35 2 -85 -61 -29 -37 -69
-84 -89 -105 l-35 -39 -33 79 c-19 43 -40 92 -47 110 -8 17 -14 36 -14 42 0
13 -33 31 -58 31 -15 0 -22 -11 -31 -57z"/>
<path d="M2063 4301 c-51 -31 -53 -112 -5 -142 19 -12 19 -14 -9 -52 -40 -55
-39 -100 2 -138 26 -25 39 -29 85 -29 53 0 124 26 139 51 5 6 20 8 39 5 25 -5
37 -2 52 15 16 18 17 22 4 30 -42 25 -42 25 -31 65 12 42 4 54 -36 54 -17 0
-23 -6 -23 -23 0 -35 -8 -37 -46 -15 -47 28 -49 34 -20 69 54 64 19 129 -70
129 -31 0 -61 -7 -81 -19z m105 -44 c16 -18 -8 -61 -36 -65 -29 -4 -52 39 -32
63 15 18 54 20 68 2z m21 -182 c23 -14 41 -29 41 -34 0 -33 -91 -53 -120 -26
-24 22 -25 43 -4 73 18 26 24 25 83 -13z"/>
<path d="M3092 4120 c-42 -26 -77 -99 -68 -143 8 -40 49 -93 89 -113 47 -25
127 -22 165 6 31 23 62 83 62 121 0 39 -29 88 -71 118 -52 38 -125 43 -177 11z
m122 -50 c14 -5 32 -23 41 -40 14 -28 14 -33 -4 -69 -21 -41 -37 -51 -77 -51
-30 0 -74 41 -74 70 0 32 28 80 53 90 29 12 32 12 61 0z"/>
<path d="M3465 4025 c-30 -41 -80 -109 -110 -150 -30 -41 -55 -81 -55 -88 0
-17 44 -42 59 -33 6 4 15 -3 20 -17 13 -34 68 -77 99 -78 85 -3 118 11 154 69
15 24 22 52 22 84 0 41 -5 53 -33 82 -18 18 -50 39 -72 45 -43 13 -43 11 5 79
l31 44 -24 19 c-13 10 -27 19 -32 19 -5 0 -34 -34 -64 -75z m85 -145 c39 -21
36 -93 -6 -134 -39 -39 -124 -5 -124 49 0 31 24 81 42 88 22 9 69 7 88 -3z"/>
<path d="M1468 4074 c-16 -8 -28 -17 -28 -21 0 -3 20 -39 45 -80 25 -40 45
-76 45 -78 0 -4 60 -105 96 -163 l15 -22 29 22 c16 11 27 25 24 30 -3 4 7 8
21 8 36 0 101 35 121 65 41 62 23 153 -40 199 -67 50 -126 46 -186 -14 -28
-28 -42 -36 -47 -27 -4 7 -17 30 -29 52 -25 46 -31 49 -66 29z m291 -110 c65
-82 -31 -182 -106 -112 -13 12 -26 36 -29 55 -14 74 88 116 135 57z"/>
<path d="M3826 3844 c-32 -32 -7 -78 39 -72 25 2 31 8 33 33 6 46 -40 71 -72
39z"/>
<path d="M1327 3825 c-96 -66 -89 -202 13 -256 45 -24 81 -24 129 1 47 24 101
86 101 117 0 19 -6 23 -29 23 -22 0 -31 -7 -40 -28 -13 -31 -58 -62 -89 -62
-45 0 -35 25 41 94 63 59 74 74 66 89 -29 51 -131 63 -192 22z m109 -46 c7
-12 -73 -99 -92 -99 -32 0 -26 64 10 92 24 20 71 24 82 7z"/>
<path d="M3665 3677 c-52 -52 -95 -99 -95 -104 0 -5 10 -19 23 -31 l23 -22
102 103 c109 109 108 107 54 140 -7 5 -48 -29 -107 -86z"/>
<path d="M1048 3685 c-19 -25 -23 -51 -10 -57 14 -6 164 -190 159 -195 -6 -5
-108 17 -204 44 -29 8 -57 12 -63 8 -16 -10 -41 -63 -31 -69 16 -10 163 -197
159 -202 -3 -2 -61 9 -130 26 -69 16 -128 30 -131 30 -11 0 -38 -60 -32 -70 3
-6 14 -10 24 -10 10 0 53 -9 97 -20 43 -12 108 -27 144 -35 36 -8 75 -17 86
-21 17 -4 26 2 44 30 26 43 28 40 -75 161 -37 43 -63 81 -57 83 6 2 63 -8 127
-23 64 -14 120 -23 125 -20 6 4 17 20 26 36 15 29 14 32 -8 59 -50 61 -175
207 -203 237 l-30 32 -17 -24z"/>
<path d="M3815 3594 c-77 -64 -141 -120 -143 -124 -4 -10 27 -60 37 -60 4 0
30 19 58 43 27 23 94 77 147 121 53 43 96 84 96 91 0 14 -32 45 -46 45 -5 0
-72 -52 -149 -116z"/>
<path d="M3900 3468 c-75 -21 -121 -101 -101 -174 21 -74 101 -155 122 -123
15 24 10 42 -21 68 -36 30 -51 91 -30 116 12 14 16 13 36 -12 13 -15 23 -31
24 -35 0 -6 55 -102 67 -117 8 -11 55 26 73 56 65 111 -46 256 -170 221z m98
-78 c12 -11 24 -31 27 -43 6 -24 -9 -77 -22 -77 -13 1 -74 113 -69 127 8 19
39 16 64 -7z"/>
<path d="M4245 3036 c-44 -11 -118 -28 -245 -55 -40 -8 -41 -10 -17 -122 20
-93 51 -153 96 -188 29 -22 45 -26 101 -26 84 0 136 31 168 99 26 54 27 93 8
173 -8 32 -17 75 -21 96 -7 42 -12 43 -90 23z m49 -155 c8 -54 6 -69 -9 -98
-37 -69 -131 -86 -183 -34 -25 25 -72 146 -60 155 2 3 79 20 173 40 11 2 31 3
45 3 23 -2 26 -7 34 -66z"/>
<path d="M976 2864 c-32 -31 -14 -84 29 -84 29 0 45 19 45 52 0 42 -45 62 -74
32z"/>
<path d="M921 2564 l-75 -64 -56 55 c-31 31 -59 52 -63 49 -4 -4 -7 -23 -7
-41 0 -28 10 -45 55 -92 30 -32 55 -61 55 -64 0 -4 -47 -7 -105 -7 -114 0
-124 -5 -111 -55 l6 -25 134 0 c73 0 161 3 195 6 l61 7 0 33 c0 32 -2 34 -35
34 -23 0 -43 8 -57 22 l-22 22 57 50 c53 47 57 54 57 94 0 23 -3 42 -7 42 -5
-1 -42 -30 -82 -66z"/>
<path d="M4110 2582 c-72 -35 -106 -131 -75 -210 30 -74 66 -50 58 39 -5 53
-3 63 17 84 13 14 27 25 31 25 5 0 10 -48 11 -107 l3 -108 27 -3 c43 -5 97 26
118 69 42 80 16 168 -61 206 -53 27 -82 28 -129 5z m150 -131 c0 -24 -7 -43
-17 -53 -41 -35 -43 -33 -43 47 l0 76 30 -16 c25 -13 30 -21 30 -54z"/>
<path d="M941 2258 c-7 -18 -4 -29 15 -49 16 -17 24 -37 24 -61 0 -57 -41 -86
-106 -74 -44 9 -58 36 -50 98 7 50 -3 78 -28 78 -19 0 -46 -55 -46 -92 0 -43
37 -116 73 -142 36 -26 121 -27 161 -1 35 23 66 84 66 130 0 86 -86 174 -109
113z"/>
<path d="M4245 2243 c-16 -3 -34 -8 -40 -13 -5 -4 -43 -11 -84 -14 -103 -10
-119 -18 -127 -62 -8 -42 -14 -36 134 -140 52 -36 100 -63 107 -61 7 3 15 17
17 31 4 20 -1 30 -22 43 -72 46 -140 97 -140 103 0 8 79 27 151 36 40 6 47 10
57 38 19 51 20 49 -53 39z"/>
<path d="M1000 1965 c-41 -19 -90 -46 -108 -61 -33 -26 -34 -29 -30 -83 3 -39
13 -69 32 -99 32 -51 54 -62 72 -38 10 15 7 25 -19 68 -29 46 -30 52 -17 76
24 41 35 36 60 -23 29 -68 51 -89 95 -89 52 0 75 27 75 87 0 42 -4 53 -34 83
-19 19 -30 37 -25 40 14 8 11 30 -8 52 -18 20 -18 19 -93 -13z m87 -97 c28
-26 29 -49 3 -73 -17 -15 -22 -16 -36 -4 -21 17 -47 77 -39 89 11 17 48 11 72
-12z"/>
<path d="M3978 1954 c-54 -23 -98 -93 -98 -156 0 -44 2 -48 24 -48 20 0 24 6
30 39 8 51 49 101 83 101 29 0 30 9 -23 -116 -26 -61 -34 -88 -26 -96 6 -6 35
-10 66 -10 63 0 92 17 125 74 44 78 17 169 -63 207 -50 25 -68 25 -118 5z
m142 -146 c0 -34 -39 -78 -71 -78 -25 0 -23 16 12 94 20 46 21 47 40 30 10 -9
19 -30 19 -46z"/>
<path d="M1170 1720 c-8 -15 -7 -26 6 -45 20 -31 13 -42 -60 -91 l-50 -33 -25
29 c-24 27 -28 28 -46 15 -18 -15 -18 -17 -2 -44 16 -27 16 -29 -8 -51 -30
-28 -30 -31 -6 -61 18 -23 19 -23 46 -5 25 17 29 17 37 2 5 -9 15 -16 23 -16
18 0 37 34 29 53 -3 9 17 28 60 56 70 46 87 75 75 129 -6 32 -44 82 -60 82 -5
0 -13 -9 -19 -20z"/>
<path d="M3795 1674 c-22 -35 -22 -35 162 -150 l148 -92 22 26 c13 15 23 29
23 32 0 5 -86 63 -141 95 -9 6 -55 34 -102 63 -47 28 -87 52 -90 52 -2 0 -12
-12 -22 -26z"/>
<path d="M3718 1537 c-56 -26 -108 -98 -108 -152 0 -37 34 -99 67 -121 37 -24
118 -24 158 0 76 45 106 159 59 223 -40 54 -117 76 -176 50z m97 -88 c46 -40
47 -77 4 -113 -40 -34 -61 -33 -104 5 -39 35 -43 57 -18 100 28 48 69 50 118
8z"/>
<path d="M1229 1491 c-39 -40 -37 -74 8 -166 30 -60 35 -79 27 -93 -6 -9 -18
-18 -26 -20 -22 -4 -76 44 -98 89 -17 33 -23 37 -43 30 -32 -12 -32 -40 2 -91
46 -70 86 -95 149 -95 48 0 57 3 78 30 32 41 30 73 -11 154 -38 75 -44 108
-19 118 31 12 80 -26 109 -83 24 -47 31 -54 56 -54 18 0 29 5 29 14 0 48 -76
153 -131 182 -47 24 -96 18 -130 -15z"/>
<path d="M3442 1419 c-31 -20 -32 -23 -17 -43 58 -79 62 -96 21 -96 -24 0 -76
-42 -95 -77 -39 -75 25 -192 115 -209 45 -8 120 29 143 71 11 21 22 29 37 27
11 -2 28 6 38 17 21 23 28 11 -104 187 -41 55 -82 110 -90 122 l-15 22 -33
-21z m106 -212 c12 -13 25 -37 28 -55 5 -26 1 -36 -24 -62 -17 -16 -39 -30
-49 -30 -27 0 -61 27 -79 62 -13 25 -13 35 -3 59 6 16 19 34 28 39 30 17 76
11 99 -13z"/>
<path d="M1552 1077 c-56 -84 -102 -158 -102 -164 0 -10 42 -43 55 -43 3 0 44
60 91 133 47 72 95 145 106 161 l21 29 -23 19 c-12 10 -28 18 -34 18 -7 0 -58
-69 -114 -153z"/>
<path d="M1769 1138 c-6 -13 -31 -59 -54 -103 -96 -179 -105 -199 -105 -215 0
-18 19 -30 48 -30 12 0 38 41 82 128 35 70 75 144 87 164 13 21 23 40 23 43 0
5 -55 35 -64 35 -3 0 -11 -10 -17 -22z"/>
<path d="M3147 1111 c-15 -3 -43 -19 -62 -34 -68 -54 -27 -99 42 -46 22 16 51
29 69 29 29 0 54 -15 54 -32 0 -7 -96 -55 -157 -79 -53 -20 -2 -103 69 -113
65 -9 118 8 156 48 28 31 32 43 32 89 0 44 -6 62 -29 94 -36 50 -89 64 -174
44z m138 -141 c8 -13 -21 -66 -40 -74 -41 -15 -95 0 -95 26 0 9 96 56 117 57
6 1 15 -3 18 -9z"/>
<path d="M1895 1078 c-41 -108 -82 -245 -76 -251 4 -4 21 -9 37 -10 26 -2 30
2 49 58 30 83 42 105 71 115 18 7 33 6 55 -5 36 -19 38 -54 9 -138 -25 -71
-25 -84 1 -97 32 -17 44 -7 67 57 27 77 36 126 28 167 -9 46 -61 79 -122 78
-30 0 -44 4 -44 13 0 22 -67 34 -75 13z"/>
<path d="M2910 996 c0 -18 8 -57 17 -86 15 -47 15 -55 2 -79 -8 -14 -27 -32
-42 -39 -32 -15 -33 -22 -9 -52 l18 -22 33 28 c25 20 35 24 41 15 5 -9 18 -11
40 -6 37 8 37 16 2 145 -12 41 -23 87 -27 103 -5 23 -10 27 -40 27 -33 0 -35
-2 -35 -34z"/>
<path d="M2385 909 l-7 -72 -47 7 c-25 3 -65 9 -88 12 l-43 7 0 -35 0 -35 76
-6 c42 -3 80 -9 84 -14 4 -4 5 -30 2 -57 l-4 -48 -52 6 c-28 3 -73 9 -99 12
l-48 7 3 -34 c3 -31 6 -34 38 -36 19 -2 77 -8 128 -14 52 -6 97 -8 100 -4 3 3
9 36 13 73 24 225 29 285 27 287 -2 1 -19 5 -39 9 l-37 7 -7 -72z"/>
<path d="M2570 960 c-11 -11 -20 -24 -20 -30 0 -17 39 -50 58 -50 40 0 57 54
26 84 -21 21 -40 20 -64 -4z"/>
</g>
</svg>
