<?xml version="1.0" standalone="no"?>
<!DOCTYPE svg PUBLIC "-//W3C//DTD SVG 20010904//EN"
 "http://www.w3.org/TR/2001/REC-SVG-20010904/DTD/svg10.dtd">
<svg version="1.0" xmlns="http://www.w3.org/2000/svg"
 width="90.000000pt" height="90.000000pt" viewBox="0 0 90.000000 90.000000"
 preserveAspectRatio="xMidYMid meet">

<g transform="translate(0.000000,90.000000) scale(0.100000,-0.100000)"
fill="#000000" stroke="none">
<path d="M370 836 c-205 -46 -346 -249 -310 -448 31 -168 160 -297 328 -328
255 -46 498 197 452 452 -31 166 -159 297 -325 327 -69 13 -74 13 -145 -3z
m38 -312 c23 -16 29 -43 12 -60 -8 -8 -6 -15 5 -24 20 -16 19 -39 -2 -62 -13
-14 -31 -18 -85 -18 l-68 0 0 90 0 90 58 0 c36 0 66 -6 80 -16z m200 0 c22
-15 22 -17 5 -29 -11 -9 -22 -10 -27 -4 -15 14 -53 11 -70 -7 -24 -23 -20 -61
9 -80 32 -21 55 -12 55 21 0 20 5 25 25 25 22 0 25 -4 25 -35 0 -42 -20 -55
-83 -55 -73 0 -115 66 -82 129 25 50 97 67 143 35z"/>
<path d="M320 485 c0 -10 10 -15 30 -15 20 0 30 5 30 15 0 10 -10 15 -30 15
-20 0 -30 -5 -30 -15z"/>
<path d="M320 409 c0 -17 5 -20 32 -17 22 2 34 9 36 21 3 14 -4 17 -32 17 -30
0 -36 -4 -36 -21z"/>
</g>
</svg>
